<svg width="150" height="177" viewBox="0 0 150 177" fill="none" xmlns="http://www.w3.org/2000/svg">
<g clip-path="url(#clip0_3894_394)">
<path d="M86.4044 50.0213C85.0427 49.6809 83.8512 49.3404 82.4895 49H82.1491L77.2129 85.4255L82.3193 82.3617V82.1915L86.7448 50.1915L86.4044 50.0213Z" fill="white"/>
<path d="M90.3198 51.553L89.9793 51.3828L86.0645 80.319L91.1708 77.2552V77.0849L94.4049 53.4254L94.2347 53.2552C92.873 52.5743 91.5113 52.0637 90.3198 51.553Z" fill="white"/>
<path d="M101.553 58.5329C100.361 57.5116 99.17 56.4903 97.8083 55.6393L97.2976 55.2988L94.5742 75.0435L99.8508 71.9797V71.8095L101.553 58.5329Z" fill="white"/>
<path d="M52.3619 55.4688L52.0214 55.639C51.0002 56.49 49.9789 57.3411 48.9576 58.1922L48.6172 58.3624L73.8087 84.9156L74.6597 78.9581L74.4895 78.7879L52.3619 55.4688Z" fill="white"/>
<path d="M59.5112 51.5527L59.341 51.7229C57.9793 52.2336 56.7878 52.9144 55.5963 53.5953L55.2559 53.7655L75.341 74.8719L76.192 68.9144L75.8516 68.7442L59.5112 51.5527Z" fill="white"/>
<path d="M77.3838 58.5319L68.3625 49H68.1923C66.6604 49.3404 65.1285 49.6809 63.5966 50.0213L63.0859 50.1915L76.703 64.6596L77.3838 58.5319Z" fill="white"/>
<path d="M114.32 81.6817C114.149 80.32 113.809 78.9583 113.298 77.5966V77.0859L88.4473 92.0647L94.0643 94.1072L94.2345 93.937L114.49 81.6817H114.32Z" fill="white"/>
<path d="M112.106 73.5109C111.595 72.3194 111.084 70.9577 110.403 69.7662L110.233 69.4258L78.9141 88.1492L84.5311 90.3619L84.7013 90.1917L112.276 73.6811L112.106 73.5109Z" fill="white"/>
<path d="M114.83 86.1063V85.5957L97.8086 95.8085L103.426 98.0212H103.596L114.83 91.2127V91.0425C114.83 90.3617 114.83 89.6808 114.83 89C115 87.8085 115 86.9574 114.83 86.1063Z" fill="white"/>
<path d="M59.8516 114.702L63.9367 127.298H64.1069C65.6388 127.808 67.1707 128.149 68.7026 128.319L69.2133 128.489L63.0856 109.596L59.8516 114.702Z" fill="white"/>
<path d="M74.4899 92.5742L71.2559 97.6806V97.8508L81.1282 128.659H81.4686C82.8303 128.489 84.192 128.149 85.3835 127.808L85.7239 127.638L74.4899 92.5742Z" fill="white"/>
<path d="M65.4688 106.192L72.7879 129.001H72.9581C73.639 129.001 74.1496 129.001 74.8305 129.001C75.6815 129.001 76.3624 129.001 77.2134 129.001H77.7241L68.873 101.256L65.4688 106.192Z" fill="white"/>
<path d="M45.3836 93.0849L38.0645 104.149V104.319C38.7453 105.851 39.4262 107.213 40.107 108.574L40.4474 109.085L51.341 92.5742L45.3836 93.0849Z" fill="white"/>
<path d="M65.8079 91.2121L47.9355 118.276L48.1058 118.446C49.127 119.297 50.1483 120.148 51.1696 120.999L51.51 121.17L71.7653 90.5312L65.8079 91.2121Z" fill="white"/>
<path d="M55.5966 92.0634L42.4902 112.148L42.6604 112.319C43.5115 113.51 44.3626 114.531 45.2136 115.553L45.5541 115.893L61.5541 91.5527L55.5966 92.0634Z" fill="white"/>
<path d="M67.3404 83.043L35.1702 85.9366V86.277C35.1702 87.1281 35 87.9791 35 88.8302C35 89.3408 35 89.8515 35 90.3621V90.7025L71.4255 87.4685L67.3404 83.043Z" fill="white"/>
<path d="M53.212 68.0645L40.1056 69.2559L39.9354 69.4262C39.2546 70.7879 38.5737 72.3198 37.8929 73.6815L37.7227 74.1921L57.4673 72.49L53.212 68.0645Z" fill="white"/>
<path d="M60.1923 75.5527L36.5327 77.5953V77.7655C36.1923 79.1272 35.8519 80.4889 35.6816 81.8506V82.3612L64.6178 79.8081L60.1923 75.5527Z" fill="white"/>
<path d="M77.5527 91.5527L79.4251 97.34H79.5953L109.723 108.744L109.893 108.404C110.574 107.212 111.085 106.021 111.765 104.829L111.936 104.489L77.5527 91.5527Z" fill="white"/>
<path d="M82.6592 107.043L104.957 115.553L105.127 115.383C105.978 114.362 106.829 113.17 107.68 112.149L108.021 111.808L80.957 101.596L82.6592 107.043Z" fill="white"/>
<path d="M85.7239 116.914L98.1494 121.68L98.3196 121.51C99.6813 120.659 100.873 119.638 102.064 118.446L102.405 118.106L83.8516 111.127L85.7239 116.914Z" fill="white"/>
</g>
<defs>
<clipPath id="clip0_3894_394">
<rect width="80" height="80" fill="white" transform="translate(35 49)"/>
</clipPath>
</defs>
</svg>
