<svg width="150" height="177" viewBox="0 0 150 177" fill="none" xmlns="http://www.w3.org/2000/svg">
<g opacity="0.6">
<g clip-path="url(#clip0_3894_394)">
<path d="M91.3467 25.3095C94.4287 22.2276 99.4385 22.2275 102.52 25.3095L137.69 60.4883C140.772 63.5703 140.772 68.5791 137.69 71.6611L99.415 109.937L96.9336 112.419L58.6572 150.694C55.5752 153.776 50.5664 153.776 47.4844 150.694L12.3095 115.52C9.22752 112.438 9.22757 107.429 12.3095 104.347L91.3467 25.3095ZM14.7939 106.827C13.0817 108.54 13.0815 111.322 14.7939 113.034L49.9687 148.208C51.6814 149.921 54.4631 149.921 56.1758 148.208L94.4511 109.933L53.0703 68.5508L14.7939 106.827ZM38.5771 99.6953C41.4014 99.6954 43.9487 100.842 45.8056 102.699C47.647 104.541 48.8095 107.104 48.8095 109.929C48.8094 112.753 47.6626 115.312 45.8056 117.157C43.9526 119.01 41.4015 120.161 38.5771 120.161C35.7526 120.161 33.1929 118.999 31.3476 117.157C29.4947 115.304 28.3439 112.753 28.3437 109.929C28.3438 107.104 29.4906 104.556 31.3359 102.699C33.189 100.846 35.7409 99.6953 38.5771 99.6953ZM67.5556 99.6758C70.3801 99.6758 72.9281 100.823 74.7851 102.68C76.6264 104.521 77.789 107.085 77.789 109.909C77.7889 112.733 76.642 115.292 74.7851 117.138C72.932 118.991 70.3802 120.142 67.5556 120.142C64.7312 120.142 62.1714 118.979 60.3261 117.138C58.4812 115.296 57.3224 112.733 57.3222 109.909C57.3223 107.085 58.4701 104.537 60.3154 102.68C62.1685 100.827 64.7196 99.6758 67.5556 99.6758ZM100.034 27.7939C98.3216 26.0815 95.5398 26.0817 93.8271 27.7939L55.5508 66.0703L96.9326 107.451L135.208 69.1758C136.921 67.4631 136.921 64.6814 135.208 62.9687L100.034 27.7939ZM96.9326 55.833C99.7685 55.8331 102.304 56.9802 104.161 58.8369C106.018 60.6939 107.165 63.2419 107.165 66.0664C107.165 68.8909 106.018 71.4506 104.161 73.2959C102.308 75.1487 99.7568 76.2997 96.9326 76.2998C94.1082 76.2997 91.5484 75.1371 89.7031 73.2959C87.8579 71.4545 86.6992 68.8908 86.6992 66.0664C86.6992 63.2419 87.8461 60.6939 89.6914 58.8369C91.5445 56.9839 94.0965 55.833 96.9326 55.833Z" fill="white"/>
</g>
</g>
<defs>
<clipPath id="clip0_3894_394">
<rect width="130" height="130" fill="white" transform="translate(10 23)"/>
</clipPath>
</defs>
</svg>
