<svg width="150" height="177" viewBox="0 0 150 177" fill="none" xmlns="http://www.w3.org/2000/svg">
<path d="M87.4436 41.3794C92.4602 41.3794 95.0142 43.8403 95.0142 46.3012C95.0142 49.8558 91.4569 52.8636 78.4137 52.8636C76.4982 52.8636 74.3091 52.7724 71.9376 52.5901C74.674 46.21 80.4203 41.3794 87.4436 41.3794ZM106.233 45.9366C106.233 55.4156 100.213 61.0665 79.6906 61.0665C76.8631 61.0665 73.7619 60.8842 70.2046 60.702V60.9754C70.2046 67.4466 74.2179 71.3658 81.5148 71.3658C86.6227 71.3658 90.0887 69.4518 93.1899 66.7175C94.0108 65.8972 95.1966 65.3503 96.4735 65.3503C97.8417 65.3503 99.1187 65.9883 99.9396 66.8997L115.902 46.0278L119.641 41.106L106.142 44.2049C106.142 44.8429 106.233 45.3897 106.233 45.9366ZM87.9909 32.4473C92.6427 32.4473 96.4735 33.3587 99.3923 34.9082L111.25 0L74.7652 8.38525L63.3637 45.4809C68.5628 37.3691 77.5927 32.4473 87.9909 32.4473ZM58.8944 61.34C58.8944 60.8842 58.8944 60.5197 58.9856 60.0639L53.6953 77.3813L64.1846 75.1027C60.6274 71.6392 58.8944 66.8086 58.8944 61.34ZM68.9276 78.3839L56.3404 124.047L90.3624 79.4776C87.7172 80.3891 84.7985 80.9359 81.2412 80.9359C76.3158 80.9359 72.2113 80.0245 68.9276 78.3839Z" fill="white"/>
<path d="M103.697 130.176C101.85 130.176 100.669 131.253 100.566 132.843C100.464 134.125 101.593 135.612 103.543 135.663C105.237 135.663 106.726 134.535 106.726 132.74C106.726 131.304 105.597 130.176 103.697 130.176ZM116.683 130.842C113.758 130.842 111.192 132.124 110.216 136.74V136.945H109.498C108.368 136.945 107.753 137.048 107.291 137.51C106.88 137.971 106.726 139.305 106.726 139.766C106.726 140.689 107.496 141.305 108.779 141.305H109.344C109.344 141.305 108.009 147.305 107.496 149.767C106.88 152.741 109.344 152.588 110.576 152.588C112.116 152.588 112.834 151.921 113.193 149.716L115.041 141.253H116.427C117.556 141.253 118.018 141.048 118.378 140.689C118.942 140.125 119.199 138.946 119.199 138.484C119.199 137.51 118.429 136.894 117.094 136.894H115.709V136.689C116.016 135.509 116.581 135.099 117.505 135.099C118.018 135.099 118.429 135.253 118.839 135.407C119.66 135.766 120.174 135.202 120.277 135.099C120.636 134.74 120.79 134.073 120.79 133.458C120.79 132.894 120.585 132.33 120.174 131.919C119.507 131.253 118.326 130.842 116.683 130.842ZM35.8411 131.047C34.3012 131.047 33.0179 131.714 32.6073 133.817L29.5788 147.972C29.0655 150.536 29.733 152.588 33.1206 152.588C34.6092 152.588 35.4305 152.126 35.8411 151.664C36.2517 151.305 36.0977 150.895 35.7897 150.741C35.1225 150.382 34.9684 149.613 35.2764 148.177L38.3562 133.817C38.8181 131.663 37.4323 131.047 35.8411 131.047ZM78.0845 132.689C76.3394 132.689 74.6966 133.919 74.132 136.535L74.0293 136.997H73.5164C72.3358 136.997 71.9249 137.202 71.5142 137.561C70.9496 138.176 70.796 139.356 70.7446 139.817C70.642 140.894 71.4631 141.356 72.7463 141.356H73.0544L71.9249 146.792C71.155 150.433 72.6952 152.639 76.5449 152.639C78.1874 152.639 79.4703 152.229 80.2402 151.408C80.8562 150.844 81.1643 150.126 81.2157 149.254C81.2157 148.895 81.113 148.639 81.0103 148.382C80.805 147.869 80.2915 147.767 79.8809 148.023C79.5216 148.228 79.0599 148.382 78.6492 148.382C77.7767 148.382 77.3145 147.818 77.5712 146.536L78.6492 141.356H80.7023C81.8828 141.356 82.2934 141.151 82.704 140.792C83.2686 140.228 83.4741 139.048 83.4741 138.586C83.4741 137.612 82.7555 136.997 81.3697 136.997H79.6755C79.6755 136.997 80.0863 134.894 80.1889 134.484C80.2916 134.073 80.5996 132.689 78.0845 132.689ZM94.5098 136.33C92.4053 136.33 91.1732 137.92 90.3519 139.766C90.1466 137.715 88.7607 136.945 87.2721 136.945C86.8102 136.945 85.6811 137.151 85.4758 137.92C85.3218 138.484 82.9093 149.767 82.9093 149.767C82.4474 151.921 83.5766 152.588 85.4244 152.536C87.4262 152.536 88.2476 151.818 88.6582 149.716L89.4283 146.126C89.9416 143.664 91.0191 141.51 92.6616 141.51C93.4316 141.51 94.0992 141.869 94.5098 142.228C94.9204 142.536 95.3822 142.433 95.8441 142.125C96.614 141.664 97.4869 140.638 97.4356 138.894C97.3842 137.304 96.101 136.33 94.5098 136.33ZM22.3929 136.894C17.1574 136.894 13 140.587 13 146.023C13 149.767 15.3611 152.588 20.6993 152.588C22.8551 152.639 24.4462 152.075 25.5241 151.357C27.0639 150.331 27.3204 149.459 27.3204 148.741C27.3204 147.664 26.448 146.895 25.5241 146.843C24.9595 146.843 24.395 147.1 23.9844 147.459C23.1631 148.177 22.0338 148.639 20.7506 148.639C18.9028 148.639 17.8761 147.869 17.6708 146.433C18.5434 146.484 19.3133 146.484 20.0832 146.484C26.7046 146.484 28.6552 144.638 28.6552 141.561C28.6552 138.74 26.4992 136.894 22.3929 136.894ZM47.3388 136.894C42.1033 136.894 37.9455 140.587 37.9455 146.023C37.9455 149.818 40.3065 152.639 45.6447 152.639C47.8518 152.639 49.3916 152.075 50.4695 151.357C52.0094 150.331 52.2663 149.459 52.2663 148.741C52.2663 147.664 51.3934 146.895 50.4695 146.843C49.9049 146.843 49.3405 147.1 48.9299 147.459C48.1086 148.177 46.9793 148.639 45.6961 148.639C43.8482 148.639 42.8216 147.869 42.6163 146.433C43.4888 146.484 44.2592 146.484 45.0291 146.484C51.6505 146.484 53.6007 144.638 53.6007 141.561C53.6007 138.74 51.4451 136.894 47.3388 136.894ZM63.3534 136.997C58.5285 136.997 54.7814 141.048 54.7814 145.818C54.7814 150.126 57.7584 152.639 62.3267 152.588C64.4825 152.588 66.1762 151.87 67.2028 150.895C67.8701 150.177 68.2296 149.459 68.2296 148.69C68.2296 147.613 67.6647 146.895 66.9461 146.638C66.3302 146.382 65.7144 146.484 65.2524 146.997C64.6365 147.715 63.8153 148.075 62.84 148.075C60.9922 148.075 59.9656 146.895 59.9656 145.305C59.9656 143.305 61.3516 141.458 63.4561 141.458C64.688 141.458 65.4579 142.023 65.9198 142.843C66.3305 143.613 67.511 143.869 68.3836 143.51C69.1535 143.202 69.7692 142.587 69.7692 141.151C69.7692 140.381 69.4615 139.561 68.7429 138.843C67.665 137.766 65.9198 136.997 63.3534 136.997ZM102.517 136.997C100.926 136.997 99.5912 137.869 99.1806 139.971L97.4869 148.075C96.9223 150.639 97.6406 152.69 101.028 152.69C102.517 152.69 103.338 152.228 103.749 151.767C104.159 151.408 104.005 150.998 103.697 150.844C103.03 150.485 102.876 149.716 103.184 148.28L105.032 139.766C105.494 137.612 104.108 136.997 102.517 136.997ZM124.023 136.997C122.535 136.997 121.714 137.407 121.252 138.023C120.584 138.946 121.406 139.766 121.56 140.023C122.022 140.638 122.432 141.1 122.638 142.587L124.485 151.562C123.202 153.46 122.278 153.921 121.252 153.921C120.225 153.87 119.352 153.203 118.839 154.229C118.223 155.613 118.891 156.793 119.507 157.306C120.225 157.921 121.252 158.332 122.74 158.332C125.563 158.332 127.257 156.434 129.054 153.613L136.086 142.536C136.907 141.356 137.164 140.741 137.266 139.869C137.523 138.074 135.829 136.945 134.546 136.997C133.519 136.997 133.006 137.458 132.647 138.074L128.13 145.972C128.13 145.972 127.514 140.176 127.309 139.458C126.744 137.561 125.615 136.997 124.023 136.997ZM22.1363 140.587C23.3681 140.587 23.9844 141.151 23.9844 141.817C23.9844 142.689 22.9575 143.305 19.6212 143.305C19.2105 143.305 18.8001 143.305 18.2868 143.254C19.0568 141.715 20.4424 140.587 22.1363 140.587ZM47.0822 140.587C48.314 140.587 48.9299 141.151 48.9299 141.817C48.9299 142.689 47.9034 143.305 44.5671 143.305C44.1565 143.305 43.7456 143.305 43.2323 143.254C44.0022 141.715 45.3883 140.587 47.0822 140.587ZM92.4563 156.793C91.4811 156.793 91.0193 157.562 91.0193 158.383C91.0193 159.05 91.481 159.409 92.405 159.409C93.3802 159.409 93.8424 158.639 93.8424 157.819C93.8424 157.152 93.3289 156.793 92.4563 156.793ZM91.5327 161.255C91.0707 161.255 90.7626 161.511 90.6086 162.229L88.1962 173.512C87.7856 175.461 87.2723 176.641 88.2475 176.846C88.3502 176.897 88.6583 176.897 88.8122 176.897C89.6848 176.897 89.8899 174.846 90.1979 173.512L92.6103 162.281C92.7643 161.511 92.3026 161.306 91.7894 161.255H91.5327ZM25.5754 161.306C20.6992 161.306 17.1574 166.024 17.1574 170.64C17.1574 174.743 19.878 176.949 23.1117 176.949C25.3188 176.949 27.4233 175.923 28.8605 173.769C28.2959 176.743 28.5009 177 29.4761 177C30.554 177 30.4516 175.564 30.9136 173.615C30.9136 173.615 33.3773 162.23 33.4287 161.973C33.48 161.717 33.4286 161.563 33.2747 161.46C33.1207 161.358 32.9153 161.306 32.7099 161.306C31.8887 161.306 31.4269 161.511 31.0163 163.665L30.8623 164.435C30.041 162.64 28.0905 161.306 25.5754 161.306ZM70.796 161.306C65.5091 161.306 61.4539 165.46 61.4539 170.845C61.4539 174.333 63.7126 176.897 67.9215 176.897C70.334 176.897 72.0792 176.282 73.3624 174.949C73.8757 174.436 74.0293 174.128 74.0293 173.615C74.0293 173.307 73.9271 173.051 73.7218 172.897C73.3625 172.589 72.849 172.794 72.5923 173.102C71.4118 174.384 70.026 175.102 67.9729 175.102C65.0471 175.102 63.5074 173.307 63.5074 170.692C63.5074 170.384 63.5583 170.025 63.5583 169.717C65.0468 169.871 66.2789 169.922 67.4595 169.922C74.1322 169.922 76.0828 168.127 76.0828 165.204C76.1342 162.896 74.1323 161.306 70.796 161.306ZM80.5996 161.306C80.189 161.306 80.0862 161.871 80.0862 161.871L77.0578 175.974C76.9038 176.743 77.3659 176.949 77.8792 176.949H78.1359C78.5978 176.949 78.906 176.692 79.0599 175.974L80.1889 170.486C81.0615 166.332 82.6526 163.255 85.0651 163.255C85.7837 163.255 86.2972 163.46 86.7079 163.768C86.9132 163.922 87.2722 163.871 87.5288 163.665C87.7341 163.46 87.8368 163.204 87.8368 162.742C87.7855 161.87 86.8103 161.306 85.7325 161.358C83.936 161.358 82.6016 162.383 81.575 164.332L81.6777 163.717C82.037 161.973 81.3695 161.306 80.5996 161.306ZM118.942 161.306C114.066 161.306 110.524 166.024 110.524 170.64C110.524 174.743 113.244 176.949 116.478 176.949C118.685 176.949 120.79 175.923 122.227 173.769C121.662 176.743 121.868 177 122.843 177C123.921 177 123.818 175.564 124.28 173.615C124.28 173.615 126.744 162.23 126.795 161.973C126.846 161.717 126.795 161.563 126.641 161.46C126.487 161.358 126.282 161.306 126.077 161.306C125.256 161.306 124.845 161.511 124.383 163.665L124.229 164.435C123.407 162.64 121.457 161.306 118.942 161.306ZM38.1508 161.358C37.6889 161.358 37.6374 161.717 37.6374 161.717L34.5581 175.974C34.4041 176.743 34.7117 176.949 35.225 176.949H35.4304C35.9437 176.949 36.4058 176.743 36.5598 175.974L38.5615 166.486C39.9987 164.178 41.3845 163.204 43.5403 163.204C45.8501 163.204 47.1334 165.153 46.5175 167.973L44.8238 175.974C44.6698 176.743 44.9774 176.949 45.4907 176.949H45.6961C46.2093 176.949 46.6715 176.743 46.8255 175.974L48.8272 166.486C50.2644 164.178 51.5989 163.204 53.806 163.204C55.6538 163.204 56.9885 164.537 56.9885 166.691C56.9885 167.512 56.6804 169.05 56.2184 170.589C55.8078 172.179 55.3974 173.923 55.2435 174.795C54.9355 176.333 54.8325 176.949 56.0644 176.949C56.937 176.949 57.1425 175.41 57.3478 174.487C57.5018 173.923 57.8099 172.435 58.2206 170.897C58.6825 169.153 59.1442 167.409 59.1442 166.332C59.1442 163.46 57.0911 161.306 54.2167 161.358C51.599 161.358 49.6997 162.742 48.5192 164.589C47.9032 162.64 46.2608 161.358 43.8997 161.358C42.1545 161.358 40.3581 162.229 39.1776 163.871L39.2289 163.768C39.5369 161.973 38.9207 161.358 38.1508 161.358ZM103.269 161.443C103.123 161.445 102.976 161.451 102.825 161.46C98.1029 161.46 94.4071 165.614 94.4071 170.127C94.4071 174.435 97.538 177 101.439 177C103.697 177 105.597 176.026 106.623 175C107.29 174.333 107.599 173.769 107.599 173.307C107.599 172.897 107.342 172.641 107.085 172.487C106.572 172.23 106.212 172.589 106.11 172.743C105.135 174.128 103.697 175.102 101.593 175.102C98.462 175.102 96.4602 172.999 96.4602 169.922C96.4602 166.588 99.0777 163.204 102.876 163.204C105.34 163.204 106.983 164.486 107.547 166.332C107.599 166.537 107.65 167.102 108.42 166.948C108.83 166.845 109.19 166.435 109.19 165.768C109.19 165.05 108.831 164.076 107.958 163.204C106.996 162.242 105.446 161.416 103.269 161.443ZM70.7446 163.05C73.0031 163.05 74.0807 164.127 74.0807 165.255C74.0807 166.794 72.6437 168.23 67.3055 168.23C66.3816 168.23 65.2522 168.178 64.0203 168.025C65.0469 165.204 67.6136 163.05 70.7446 163.05ZM25.4214 163.101C27.9878 163.101 29.5789 164.589 30.2975 166.948L29.7842 169.41C29.1682 172.487 26.4481 175.153 23.317 175.153C21.0586 175.153 19.1591 173.512 19.1591 170.589C19.1591 167.05 21.5204 163.101 25.4214 163.101ZM118.839 163.101C121.406 163.101 122.997 164.589 123.716 166.948L123.202 169.41C122.586 172.487 119.866 175.153 116.735 175.153C114.476 175.153 112.577 173.512 112.577 170.589C112.577 167.05 114.938 163.101 118.839 163.101Z" fill="white"/>
</svg>
