<svg width="150" height="177" viewBox="0 0 150 177" fill="none" xmlns="http://www.w3.org/2000/svg">
<g clip-path="url(#clip0_3894_394)">
<mask id="mask0_3894_394" style="mask-type:luminance" maskUnits="userSpaceOnUse" x="-160" y="-1566" width="1772" height="2300">
<path d="M-159.199 733.789H1611.18V-1565.61H-159.199V733.789Z" fill="white"/>
</mask>
<g mask="url(#mask0_3894_394)">
<path d="M131.442 74.8151C131.442 75.2593 131.101 75.599 130.661 75.599C130.215 75.599 129.877 75.2593 129.877 74.8151C129.877 74.368 130.215 74.0313 130.661 74.0313C131.101 74.0313 131.442 74.368 131.442 74.8151ZM131.592 74.8151C131.592 74.2809 131.185 73.8803 130.661 73.8803C130.129 73.8803 129.727 74.2809 129.727 74.8151C129.727 75.3464 130.129 75.75 130.661 75.75C131.185 75.75 131.592 75.3464 131.592 74.8151ZM131.083 74.5945C131.083 74.3826 130.933 74.2867 130.751 74.2867H130.305V75.3087H130.479V74.9139H130.673L130.872 75.3087H131.077L130.872 74.8964C130.999 74.8558 131.083 74.7571 131.083 74.5945ZM130.91 74.6003C130.91 74.699 130.84 74.7455 130.745 74.7455H130.479V74.4522H130.745C130.84 74.4522 130.91 74.5045 130.91 74.6003Z" fill="white"/>
</g>
<path d="M135.999 110.572H128.148V118.455H135.999V110.572Z" fill="white"/>
<path d="M112.217 75.4758L116.894 110.704L121.563 75.4758H128.85L122.035 118.453H111.673L104.93 75.4758H112.217Z" fill="white"/>
<mask id="mask1_3894_394" style="mask-type:luminance" maskUnits="userSpaceOnUse" x="-160" y="-1566" width="1772" height="2300">
<path d="M-159.199 733.789H1611.18V-1565.61H-159.199V733.789Z" fill="white"/>
</mask>
<g mask="url(#mask1_3894_394)">
<path d="M17.0412 75.4758H13V81.1865H17.0412V118.453H24.143V81.1865H29.133V75.4758H24.143V66.7398C24.143 65.4652 24.4062 64.4897 25.0195 63.822C25.6356 63.16 26.5758 62.8465 27.8515 62.8465H29.1301V56.9992H26.5613C23.4053 56.9992 20.365 57.6699 18.9186 59.049C17.4722 60.428 17.0412 62.5677 17.0412 65.6162V75.4758Z" fill="white"/>
</g>
<path d="M31.3516 118.452H38.4707V75.4746H31.3516V118.452Z" fill="white"/>
<mask id="mask2_3894_394" style="mask-type:luminance" maskUnits="userSpaceOnUse" x="-160" y="-1566" width="1772" height="2300">
<path d="M-159.199 733.789H1611.18V-1565.61H-159.199V733.789Z" fill="white"/>
</mask>
<g mask="url(#mask2_3894_394)">
<path d="M71.3395 99.3969H86.1794V86.1521C86.162 78.229 82.3667 74.9802 75.1753 74.9802C67.6975 74.9802 64.1914 78.2203 64.1914 86.2044V107.97C64.2145 115.231 68.5942 118.988 75.1724 118.988C81.7477 118.988 86.162 115.896 86.1794 107.97V104.527H79.3033L79.312 108.606C79.312 111.515 78.2272 113.527 75.317 113.527C72.4011 113.527 71.3395 111.498 71.3395 108.603V99.3969ZM71.3395 84.7266C71.3395 82.3023 71.9672 79.791 75.2968 79.791C78.6235 79.791 79.2975 82.2646 79.2975 84.7237V93.6048H71.3395V84.7266Z" fill="white"/>
<path d="M54.4759 94.0201C49.0751 89.3139 48.6556 88.6316 48.6556 85.1244C48.6556 82.137 48.9131 80.3195 51.5889 80.3195C54.2618 80.3195 54.609 82.1137 54.609 85.1593V89.1281H61.4706V82.6537C61.4475 77.5701 57.5509 74.9862 51.4298 74.9862C45.4099 74.9862 41.4844 76.9981 41.4497 85.1244C41.4439 86.5064 41.4526 86.5064 41.4497 85.9722C41.4613 88.5271 41.4729 92.5772 47.7646 97.9947L49.5697 99.5451C54.2069 103.47 54.7131 103.944 54.6928 108.612C54.6899 111.489 54.5135 113.67 51.505 113.67C48.4965 113.67 48.3085 111.472 48.3085 110.116V104.617H41.1055V110.29C41.1055 117.273 45.6327 119 51.4963 119C57.3658 119 61.8988 117.255 61.8988 108.272V107.526C61.8843 101.249 60.7532 99.5654 54.4759 94.0201Z" fill="white"/>
<path d="M95.7092 79.8994V75.4748H89.2207V118.449H96.2212V88.4989C96.2183 86.185 96.9705 84.6608 98.278 83.7607C99.5161 82.9043 101.041 82.6139 102.982 82.5849V74.9812C99.2673 75.0596 97.6647 75.7941 95.7815 79.7426L95.7092 79.8994Z" fill="white"/>
</g>
</g>
<defs>
<clipPath id="clip0_3894_394">
<rect width="123" height="62" fill="white" transform="translate(13 57)"/>
</clipPath>
</defs>
</svg>
