<svg width="1736" height="249" viewBox="0 0 1736 249" fill="none" xmlns="http://www.w3.org/2000/svg">
<path d="M164.16 314.131C143.507 314.131 124.093 310.413 105.918 302.978C88.018 295.267 72.1837 284.527 58.4147 270.758C44.9211 256.989 34.319 241.155 26.6083 223.255C19.1731 205.08 15.4554 185.528 15.4554 164.6C15.4554 143.395 19.3108 123.843 27.0214 105.944C34.732 87.7686 45.4718 71.9343 59.2408 58.4407C73.0098 44.6717 89.1195 34.0696 107.57 26.6343C126.02 18.9237 145.985 15.0684 167.465 15.0684C191.423 15.0684 213.453 19.6121 233.556 28.6997C253.659 37.5118 270.319 50.0416 283.538 66.289L245.535 104.291C236.448 92.4501 225.157 83.3625 211.663 77.0288C198.17 70.6951 183.299 67.5282 167.052 67.5282C148.602 67.5282 132.216 71.6589 117.897 79.9203C103.852 87.9063 92.8371 99.1969 84.8511 113.792C76.8651 128.112 72.8721 144.91 72.8721 164.186C72.8721 183.463 76.7274 200.537 84.4381 215.407C92.4241 230.002 103.164 241.43 116.657 249.692C130.426 257.953 146.123 262.084 163.747 262.084C181.922 262.084 197.481 258.779 210.424 252.17C223.367 245.286 233.281 235.372 240.165 222.429C247.05 209.211 250.492 193.101 250.492 174.1L287.255 199.297L160.443 198.058V149.316H308.322V157.164C308.322 191.862 302.126 220.915 289.734 244.322C277.342 267.454 260.268 284.94 238.513 296.782C217.033 308.348 192.249 314.131 164.16 314.131ZM333.238 310V110.487H387.763V310H333.238ZM360.501 78.268C351.689 78.268 344.391 75.3765 338.608 69.5936C332.825 63.5352 329.934 56.0999 329.934 47.2878C329.934 38.751 332.825 31.4535 338.608 25.3951C344.391 19.3368 351.689 16.3076 360.501 16.3076C369.588 16.3076 376.886 19.3368 382.393 25.3951C388.176 31.4535 391.068 38.751 391.068 47.2878C391.068 56.0999 388.176 63.5352 382.393 69.5936C376.886 75.3765 369.588 78.268 360.501 78.268ZM506.747 314.131C488.572 314.131 472.187 309.587 457.591 300.499C442.996 291.412 431.568 279.02 423.307 263.323C415.045 247.627 410.915 230.002 410.915 210.45C410.915 190.623 415.045 172.861 423.307 157.164C431.568 141.468 442.996 129.076 457.591 119.988C472.187 110.9 488.572 106.357 506.747 106.357C521.066 106.357 533.872 109.248 545.162 115.031C556.453 120.814 565.403 128.938 572.012 139.402C578.896 149.591 582.614 161.157 583.165 174.1V245.974C582.614 259.192 578.896 270.896 572.012 281.085C565.403 291.274 556.453 299.398 545.162 305.456C533.872 311.239 521.066 314.131 506.747 314.131ZM516.66 264.149C531.806 264.149 544.061 259.192 553.424 249.279C562.786 239.09 567.468 226.009 567.468 210.037C567.468 199.573 565.265 190.348 560.859 182.362C556.728 174.1 550.807 167.766 543.097 163.36C535.662 158.679 526.849 156.338 516.66 156.338C506.747 156.338 497.935 158.679 490.224 163.36C482.789 167.766 476.868 174.1 472.462 182.362C468.331 190.348 466.266 199.573 466.266 210.037C466.266 220.777 468.331 230.278 472.462 238.539C476.868 246.525 482.789 252.859 490.224 257.54C497.935 261.946 506.747 264.149 516.66 264.149ZM564.576 310V256.301L573.251 207.559L564.576 159.643V110.487H618.276V310H564.576ZM747.934 314.131C727.556 314.131 709.243 309.587 692.996 300.499C676.748 291.412 663.943 279.02 654.58 263.323C645.218 247.627 640.536 230.002 640.536 210.45C640.536 190.623 645.218 172.861 654.58 157.164C663.943 141.468 676.748 129.076 692.996 119.988C709.519 110.625 727.831 105.944 747.934 105.944C763.631 105.944 778.088 108.835 791.306 114.618C804.525 120.401 815.953 128.662 825.591 139.402L790.893 174.513C785.661 168.73 779.327 164.324 771.892 161.295C764.732 158.266 756.746 156.751 747.934 156.751C738.02 156.751 729.071 159.092 721.085 163.773C713.374 168.179 707.178 174.376 702.497 182.362C698.09 190.072 695.887 199.297 695.887 210.037C695.887 220.502 698.09 229.865 702.497 238.126C707.178 246.112 713.374 252.446 721.085 257.127C729.071 261.533 738.02 263.736 747.934 263.736C757.022 263.736 765.145 262.222 772.305 259.192C779.74 255.888 786.074 251.206 791.306 245.148L826.417 280.259C816.228 291.274 804.525 299.673 791.306 305.456C778.088 311.239 763.631 314.131 747.934 314.131ZM978.917 310V195.58C978.917 183.738 975.2 174.1 967.765 166.665C960.329 159.23 950.691 155.512 938.85 155.512C931.139 155.512 924.255 157.164 918.196 160.469C912.138 163.773 907.319 168.455 903.739 174.513C900.434 180.572 898.782 187.594 898.782 195.58L877.715 184.84C877.715 169.143 881.02 155.512 887.629 143.946C894.238 132.105 903.326 122.88 914.892 116.27C926.733 109.661 940.227 106.357 955.372 106.357C970.518 106.357 983.874 109.661 995.44 116.27C1007.28 122.88 1016.51 131.967 1023.12 143.533C1029.72 155.099 1033.03 168.455 1033.03 183.601V310H978.917ZM844.67 310V11.3507H898.782V310H844.67ZM1159.65 314.131C1138.72 314.131 1120.13 309.725 1103.88 300.912C1087.63 291.825 1074.69 279.433 1065.05 263.736C1055.69 248.04 1051.01 230.14 1051.01 210.037C1051.01 190.21 1055.55 172.586 1064.64 157.164C1074 141.468 1086.67 129.076 1102.64 119.988C1118.61 110.625 1136.38 105.944 1155.93 105.944C1175.2 105.944 1192.14 110.35 1206.73 119.162C1221.61 127.699 1233.17 139.54 1241.43 154.686C1249.97 169.556 1254.24 186.492 1254.24 205.493C1254.24 209.073 1253.96 212.791 1253.41 216.646C1253.14 220.226 1252.45 224.357 1251.35 229.038L1083.64 229.451V188.971L1226.15 188.558L1204.26 205.493C1203.71 193.652 1201.5 183.738 1197.65 175.752C1194.07 167.766 1188.7 161.708 1181.54 157.577C1174.65 153.171 1166.12 150.968 1155.93 150.968C1145.19 150.968 1135.82 153.447 1127.84 158.403C1119.85 163.085 1113.66 169.832 1109.25 178.644C1105.12 187.181 1103.05 197.37 1103.05 209.211C1103.05 221.328 1105.26 231.93 1109.66 241.017C1114.35 249.83 1120.95 256.714 1129.49 261.671C1138.03 266.352 1147.94 268.693 1159.23 268.693C1169.42 268.693 1178.65 267.041 1186.91 263.736C1195.17 260.156 1202.33 254.924 1208.39 248.04L1240.19 279.846C1230.56 291.136 1218.71 299.673 1204.67 305.456C1190.9 311.239 1175.89 314.131 1159.65 314.131ZM1275.31 310V110.487H1329.42V310H1275.31ZM1329.42 199.71L1308.36 185.666C1310.83 161.157 1317.99 141.881 1329.84 127.836C1341.68 113.517 1358.75 106.357 1381.06 106.357C1390.7 106.357 1399.37 108.009 1407.08 111.314C1414.79 114.343 1421.81 119.437 1428.15 126.597L1394.27 165.426C1391.25 162.121 1387.53 159.643 1383.12 157.99C1378.99 156.338 1374.17 155.512 1368.66 155.512C1357.1 155.512 1347.6 159.23 1340.16 166.665C1333 173.825 1329.42 184.84 1329.42 199.71ZM1434.76 310V110.487H1489.29V310H1434.76ZM1462.02 78.268C1453.21 78.268 1445.92 75.3765 1440.13 69.5936C1434.35 63.5352 1431.46 56.0999 1431.46 47.2878C1431.46 38.751 1434.35 31.4535 1440.13 25.3951C1445.92 19.3368 1453.21 16.3076 1462.02 16.3076C1471.11 16.3076 1478.41 19.3368 1483.92 25.3951C1489.7 31.4535 1492.59 38.751 1492.59 47.2878C1492.59 56.0999 1489.7 63.5352 1483.92 69.5936C1478.41 75.3765 1471.11 78.268 1462.02 78.268ZM1618.6 314.131C1598.49 314.131 1580.32 309.587 1564.07 300.499C1548.1 291.136 1535.3 278.607 1525.66 262.91C1516.29 246.938 1511.61 229.176 1511.61 209.624C1511.61 190.072 1516.29 172.586 1525.66 157.164C1535.02 141.468 1547.82 129.076 1564.07 119.988C1580.32 110.625 1598.36 105.944 1618.18 105.944C1638.56 105.944 1656.74 110.625 1672.71 119.988C1688.96 129.076 1701.76 141.468 1711.13 157.164C1720.49 172.586 1725.17 190.072 1725.17 209.624C1725.17 229.176 1720.49 246.938 1711.13 262.91C1701.76 278.607 1688.96 291.136 1672.71 300.499C1656.74 309.587 1638.7 314.131 1618.6 314.131ZM1618.18 263.736C1628.37 263.736 1637.32 261.533 1645.03 257.127C1653.02 252.446 1659.08 246.112 1663.21 238.126C1667.62 229.865 1669.82 220.502 1669.82 210.037C1669.82 199.573 1667.62 190.348 1663.21 182.362C1658.8 174.376 1652.74 168.179 1645.03 163.773C1637.32 159.092 1628.37 156.751 1618.18 156.751C1608.27 156.751 1599.46 159.092 1591.75 163.773C1584.04 168.179 1577.98 174.376 1573.57 182.362C1569.17 190.348 1566.96 199.573 1566.96 210.037C1566.96 220.502 1569.17 229.865 1573.57 238.126C1577.98 246.112 1584.04 252.446 1591.75 257.127C1599.46 261.533 1608.27 263.736 1618.18 263.736Z" fill="black"/>
</svg>
