<svg width="1736" height="269" viewBox="0 0 1736 269" fill="none" xmlns="http://www.w3.org/2000/svg">
<path d="M167.607 331.228C147.03 331.228 127.721 327.423 109.681 319.812C91.9228 311.92 76.2786 301.067 62.7485 287.255C49.5003 273.443 39.0709 257.376 31.4602 239.054C23.8495 220.732 20.0442 201.001 20.0442 179.86C20.0442 158.72 23.8495 139.129 31.4602 121.089C39.0709 102.767 49.6412 86.7001 63.1713 72.8881C76.7014 59.0761 92.4865 48.3648 110.527 40.7541C128.849 33.1435 148.721 29.3381 170.144 29.3381C193.539 29.3381 215.103 33.8482 234.834 42.8682C254.566 51.8883 271.055 64.8546 284.304 81.7672L256.821 109.25C247.519 95.7201 235.257 85.4316 220.036 78.3847C204.814 71.0559 188.184 67.3915 170.144 67.3915C148.721 67.3915 129.694 72.1834 113.064 81.7672C96.7147 91.351 83.8893 104.599 74.5873 121.512C65.5673 138.424 61.0573 157.874 61.0573 179.86C61.0573 202.129 65.7082 221.719 75.0102 238.632C84.3121 255.544 96.8556 268.792 112.641 278.376C128.426 287.96 146.466 292.752 166.761 292.752C187.338 292.752 205.096 288.806 220.036 280.913C235.257 273.021 246.955 261.464 255.129 246.242C263.304 230.739 267.391 211.853 267.391 189.585L291.492 206.921H164.647V170.558H308.404V176.478C308.404 210.585 302.344 239.195 290.223 262.309C278.384 285.141 261.754 302.336 240.331 313.893C219.19 325.45 194.949 331.228 167.607 331.228ZM342.837 327V126.163H380.89V327H342.837ZM361.864 85.9954C354.817 85.9954 349.038 83.7403 344.528 79.2303C340.018 74.4384 337.763 68.519 337.763 61.4721C337.763 54.7071 340.018 49.0695 344.528 44.5595C349.038 39.7676 354.817 37.3716 361.864 37.3716C368.911 37.3716 374.689 39.7676 379.199 44.5595C383.709 49.0695 385.964 54.7071 385.964 61.4721C385.964 68.519 383.709 74.4384 379.199 79.2303C374.689 83.7403 368.911 85.9954 361.864 85.9954ZM509.694 331.228C491.372 331.228 474.741 326.718 459.802 317.698C444.862 308.396 433.023 295.853 424.285 280.068C415.829 264.282 411.601 246.524 411.601 226.793C411.601 207.061 415.829 189.303 424.285 173.518C433.023 157.733 444.721 145.189 459.379 135.888C474.318 126.586 491.09 121.935 509.694 121.935C524.915 121.935 538.445 125.176 550.284 131.659C562.405 137.861 572.13 146.599 579.458 157.874C586.787 168.867 590.874 181.693 591.72 196.35V256.813C590.874 271.188 586.787 284.014 579.458 295.289C572.411 306.564 562.828 315.443 550.707 321.926C538.868 328.128 525.197 331.228 509.694 331.228ZM516.036 295.289C534.922 295.289 550.143 288.947 561.7 276.262C573.257 263.296 579.036 246.806 579.036 226.793C579.036 212.981 576.358 201.001 571.002 190.854C565.928 180.424 558.599 172.391 549.016 166.753C539.432 160.834 528.298 157.874 515.613 157.874C502.929 157.874 491.654 160.834 481.788 166.753C472.204 172.672 464.594 180.847 458.956 191.276C453.6 201.424 450.923 213.122 450.923 226.37C450.923 239.9 453.6 251.88 458.956 262.309C464.594 272.457 472.345 280.49 482.211 286.41C492.077 292.329 503.352 295.289 516.036 295.289ZM576.499 327V272.88L583.687 223.833L576.499 175.209V126.163H614.975V327H576.499ZM749.443 331.228C729.712 331.228 711.813 326.577 695.746 317.275C679.961 307.973 667.417 295.43 658.115 279.645C649.095 263.578 644.585 245.819 644.585 226.37C644.585 206.639 649.095 188.88 658.115 173.095C667.417 157.31 679.961 144.908 695.746 135.888C711.813 126.586 729.712 121.935 749.443 121.935C764.946 121.935 779.322 124.894 792.57 130.814C805.819 136.451 817.235 144.767 826.818 155.76L801.45 181.129C795.248 173.8 787.638 168.303 778.617 164.639C769.879 160.693 760.155 158.72 749.443 158.72C736.759 158.72 725.484 161.679 715.618 167.599C705.752 173.236 698.001 181.129 692.363 191.276C686.726 201.424 683.907 213.122 683.907 226.37C683.907 239.618 686.726 251.316 692.363 261.464C698.001 271.611 705.752 279.645 715.618 285.564C725.484 291.484 736.759 294.443 749.443 294.443C760.155 294.443 769.879 292.611 778.617 288.947C787.638 285 795.389 279.363 801.872 272.034L826.818 297.403C817.516 308.114 806.1 316.43 792.57 322.349C779.322 328.268 764.946 331.228 749.443 331.228ZM993.939 327V209.88C993.939 194.659 989.147 182.115 979.564 172.25C969.98 162.384 957.577 157.451 942.356 157.451C932.208 157.451 923.188 159.706 915.296 164.216C907.403 168.726 901.202 174.927 896.692 182.82C892.182 190.713 889.927 199.733 889.927 209.88L874.283 201.001C874.283 185.78 877.665 172.25 884.43 160.411C891.195 148.572 900.638 139.27 912.759 132.505C924.88 125.458 938.551 121.935 953.772 121.935C968.993 121.935 982.382 125.317 993.939 132.082C1005.78 138.847 1015.08 148.29 1021.85 160.411C1028.61 172.532 1031.99 186.484 1031.99 202.27V327H993.939ZM851.874 327V25.11H889.927V327H851.874ZM1163.85 331.228C1143.84 331.228 1125.79 326.718 1109.73 317.698C1093.66 308.396 1080.98 295.853 1071.67 280.068C1062.37 264.282 1057.72 246.383 1057.72 226.37C1057.72 206.639 1062.23 188.88 1071.25 173.095C1080.55 157.31 1092.96 144.908 1108.46 135.888C1124.24 126.586 1141.86 121.935 1161.31 121.935C1179.92 121.935 1196.26 126.163 1210.36 134.619C1224.73 143.075 1235.87 154.773 1243.76 169.713C1251.93 184.652 1256.02 201.565 1256.02 220.451C1256.02 223.269 1255.88 226.37 1255.6 229.753C1255.32 232.853 1254.75 236.518 1253.91 240.746H1084.36V209.035H1233.61L1219.66 221.296C1219.66 207.766 1217.26 196.35 1212.47 187.048C1207.68 177.464 1200.92 170.136 1192.18 165.062C1183.44 159.706 1172.87 157.028 1160.47 157.028C1147.5 157.028 1136.08 159.847 1126.22 165.485C1116.35 171.122 1108.74 179.015 1103.39 189.162C1098.03 199.31 1095.35 211.29 1095.35 225.102C1095.35 239.195 1098.17 251.598 1103.81 262.309C1109.45 272.739 1117.48 280.913 1127.91 286.833C1138.34 292.47 1150.32 295.289 1163.85 295.289C1175.12 295.289 1185.41 293.316 1194.71 289.369C1204.3 285.423 1212.47 279.504 1219.24 271.611L1243.76 296.557C1234.18 307.832 1222.34 316.43 1208.24 322.349C1194.43 328.268 1179.63 331.228 1163.85 331.228ZM1284.83 327V126.163H1322.88V327H1284.83ZM1322.88 212.417L1308.51 206.075C1308.51 180.424 1314.43 159.988 1326.27 144.767C1338.1 129.545 1355.16 121.935 1377.43 121.935C1387.57 121.935 1396.73 123.767 1404.91 127.431C1413.08 130.814 1420.69 136.592 1427.74 144.767L1402.8 170.558C1398.57 166.048 1393.92 162.807 1388.84 160.834C1383.77 158.861 1377.85 157.874 1371.08 157.874C1356.99 157.874 1345.43 162.384 1336.41 171.404C1327.39 180.424 1322.88 194.095 1322.88 212.417ZM1442.27 327V126.163H1480.33V327H1442.27ZM1461.3 85.9954C1454.25 85.9954 1448.47 83.7403 1443.96 79.2303C1439.45 74.4384 1437.2 68.519 1437.2 61.4721C1437.2 54.7071 1439.45 49.0695 1443.96 44.5595C1448.47 39.7676 1454.25 37.3716 1461.3 37.3716C1468.35 37.3716 1474.12 39.7676 1478.63 44.5595C1483.14 49.0695 1485.4 54.7071 1485.4 61.4721C1485.4 68.519 1483.14 74.4384 1478.63 79.2303C1474.12 83.7403 1468.35 85.9954 1461.3 85.9954ZM1615.47 331.228C1595.74 331.228 1577.98 326.577 1562.2 317.275C1546.41 307.973 1533.87 295.43 1524.57 279.645C1515.26 263.578 1510.61 245.679 1510.61 225.947C1510.61 206.498 1515.26 189.021 1524.57 173.518C1533.87 157.733 1546.41 145.189 1562.2 135.888C1577.98 126.586 1595.74 121.935 1615.47 121.935C1634.92 121.935 1652.54 126.586 1668.32 135.888C1684.39 144.908 1697.07 157.31 1706.38 173.095C1715.68 188.88 1720.33 206.498 1720.33 225.947C1720.33 245.679 1715.68 263.578 1706.38 279.645C1697.07 295.43 1684.39 307.973 1668.32 317.275C1652.54 326.577 1634.92 331.228 1615.47 331.228ZM1615.47 294.443C1628.16 294.443 1639.43 291.484 1649.3 285.564C1659.16 279.645 1666.91 271.611 1672.55 261.464C1678.19 251.034 1681.01 239.195 1681.01 225.947C1681.01 212.981 1678.05 201.424 1672.13 191.276C1666.49 181.129 1658.74 173.236 1648.87 167.599C1639.29 161.679 1628.16 158.72 1615.47 158.72C1602.79 158.72 1591.51 161.679 1581.65 167.599C1571.78 173.236 1564.03 181.129 1558.39 191.276C1552.75 201.424 1549.93 212.981 1549.93 225.947C1549.93 239.195 1552.75 251.034 1558.39 261.464C1564.03 271.611 1571.78 279.645 1581.65 285.564C1591.51 291.484 1602.79 294.443 1615.47 294.443Z" fill="white" fill-opacity="0.05"/>
</svg>
