<svg width="150" height="177" viewBox="0 0 150 177" fill="none" xmlns="http://www.w3.org/2000/svg">
<g opacity="0.6">
<g clip-path="url(#clip0_3894_394)">
<path fill-rule="evenodd" clip-rule="evenodd" d="M149.493 53.2865L84.4629 66.4008V71.0294H84.7169C127.774 60.4865 149.62 54.0579 149.747 54.0579C150.001 54.0579 150.128 53.8008 150.001 53.6722C150.001 53.2865 149.747 53.1579 149.493 53.2865Z" fill="white"/>
<path fill-rule="evenodd" clip-rule="evenodd" d="M96.6554 52C93.4801 52.1286 87.6376 56.8857 84.4623 59.7143C71.6342 70.9 62.1084 81.1857 55.2498 92.1143C40.6435 99.9571 22.2269 107.929 3.93734 114.229L3.55631 114.357L0 124L2.03218 123.229C13.7172 118.729 33.0229 110.371 50.6774 100.986C49.6613 103.686 49.1533 106.129 49.1533 108.314C49.1533 109.986 49.4073 111.529 50.0423 112.943C51.1854 115.771 53.3446 117.957 56.3929 119.114C60.8383 120.914 67.0618 120.914 74.0474 118.857C91.829 113.329 113.04 96.4857 117.739 93.1429L117.866 93.0143C117.993 92.8857 118.12 92.6286 117.993 92.5C117.866 92.3714 117.739 92.3714 117.485 92.3714L117.231 92.5C112.278 95.4571 88.1456 109.986 72.5233 114.229C64.5216 116.414 58.4251 115.257 56.1389 111.914C55.3768 110.757 54.9958 109.343 54.9958 107.8C54.9958 104.586 56.5199 100.471 59.3141 95.9714C61.9814 94.4286 64.3946 93.0143 66.6808 91.6C81.9221 82.8571 99.5766 66.0143 100.339 55.6C100.339 55.4714 100.339 55.4714 100.339 55.3429C100.339 54.4429 99.9577 53.5429 99.3226 52.9C98.5605 52.2571 97.6715 52 96.6554 52ZM94.8772 56.8857C95.8933 56.2429 96.1473 56.6286 95.8933 57.4C95.3853 58.5571 93.2261 65.7571 76.8417 79.3857C72.5233 82.9857 69.475 84.9143 63.3785 88.6429C73.4124 74.2429 88.1456 61.3857 94.8772 56.8857Z" fill="white"/>
<path fill-rule="evenodd" clip-rule="evenodd" d="M84.2082 66.4001L15.7493 81.3143L13.082 88.5143L84.4622 70.9001H84.5892V66.2715L84.2082 66.4001Z" fill="white"/>
</g>
</g>
<defs>
<clipPath id="clip0_3894_394">
<rect width="150" height="72" fill="white" transform="translate(0 52)"/>
</clipPath>
</defs>
</svg>
