<svg width="150" height="177" viewBox="0 0 150 177" fill="none" xmlns="http://www.w3.org/2000/svg">
<path d="M113.972 65.1753H35.7168C43.4072 51.3532 58.0607 42 74.7926 42C91.5245 42 106.282 51.3532 113.972 65.1753Z" fill="white"/>
<path d="M30 67.7754V81.4935H48.3947L70.7386 67.7754H30Z" fill="white"/>
<path d="M96.3058 81.4931H53.3848L75.4169 67.8789L96.3058 81.4931Z" fill="white"/>
<path d="M79.9883 67.7754H119.584V81.4935H101.085L79.9883 67.7754Z" fill="white"/>
<path d="M30 90.4312V88.2488L30.5196 88.6645L30.1039 89.8077L30 90.4312ZM45.277 120.777H41.8475L43.6142 119.53L45.277 120.777ZM47.6673 120.777H45.277L44.6534 118.699L46.4202 117.452H44.2377L43.6142 115.373L42.9906 117.452H40.8082L42.5749 118.699L41.9514 120.777H30.2078V98.6413V90.6391L31.8707 89.4959L33.6374 90.743L33.0138 88.6645L34.7805 87.4174H32.5981L31.9746 85.3389L31.6628 86.2742L31.2471 87.4174H30.3118V84.0918H47.979V120.777H47.6673ZM30 98.6413L31.7667 99.8884L31.1432 101.967L32.9099 100.72L34.6766 101.967L34.0531 99.8884L35.8198 98.6413H33.6374L33.0138 96.5628L32.3903 98.6413H30ZM36.0277 110.385L35.4041 112.463L37.1708 111.216L38.9376 112.463L38.314 110.385L40.0807 109.138H37.8983L37.2748 107.059L36.6512 109.138H34.4688L36.0277 110.385Z" fill="white"/>
<path d="M50.2656 120.777H57.6443V84.0918H50.2656V120.777Z" fill="white"/>
<path d="M60.2402 120.777H68.2425V84.0918H60.2402V120.777Z" fill="white"/>
<path d="M70.8438 120.777H78.846V84.0918H70.8438V120.777Z" fill="white"/>
<path d="M81.3418 120.777H89.344V84.0918H81.3418V120.777Z" fill="white"/>
<path d="M91.9375 120.777H99.628V84.0918H91.9375V120.777Z" fill="white"/>
<path d="M119.584 88.3512V90.014L119.168 88.663L119.584 88.3512ZM119.584 120.776H107.944H104.411H102.229V83.9863H119.584V87.3119H118.753L118.129 85.2334L117.505 87.3119H115.323L117.09 88.559L116.466 90.6375L118.233 89.3904L119.792 90.5336V98.6398H117.713L117.09 96.5613L116.466 98.6398H114.284L116.051 99.8868L115.427 101.965L117.194 100.718L118.96 101.965L118.337 99.8868L120 98.7437V120.776H119.584ZM107.944 120.776L107.321 118.697L109.088 117.45H106.905L106.282 115.372L105.658 117.45H103.476L105.242 118.697L104.619 120.776L106.386 119.529L107.944 120.776ZM113.66 110.383L115.427 109.136H113.245L112.621 107.058L111.997 109.136H109.815L111.582 110.383L110.958 112.462L112.725 111.215L114.492 112.462L113.66 110.383Z" fill="white"/>
<path d="M30 133.142H47.6673V123.373H30V133.142Z" fill="white"/>
<path d="M75.8312 133.142H73.8566L74.7919 132.415L75.8312 133.142ZM62.5288 130.336L61.9052 132.415L63.672 131.167L65.4387 132.415L64.8151 130.336L66.5819 129.089H64.3994L63.7759 127.01L63.1523 129.089H60.9699L62.5288 130.336ZM73.7527 131.687L73.2331 133.142H50.2656V123.373H53.0716L52.552 124.932H50.3695L52.1363 126.179L51.5127 128.258L53.2795 127.01L55.0462 128.258L54.4226 126.179L56.1893 124.932H54.0069L53.4873 123.373H96.4083L95.8887 124.932H93.7063L95.473 126.179L94.8495 128.258L96.6162 127.01L98.3829 128.258L97.7594 126.179L99.5261 124.932H97.3437L96.824 123.373H99.8379V133.142H76.6626L76.143 131.687L77.9097 130.44H75.7273L75.1037 128.361L74.4802 130.44H72.0899L73.7527 131.687ZM86.8472 130.336L88.614 129.089H86.4315L85.808 127.01L85.1844 129.089H83.002L84.7687 130.336L84.1452 132.415L85.9119 131.167L87.6786 132.415L86.8472 130.336Z" fill="white"/>
<path d="M102.229 133.142H119.584V123.373H102.229V133.142Z" fill="white"/>
</svg>
