<svg width="48" height="48" viewBox="0 0 48 48" fill="none" xmlns="http://www.w3.org/2000/svg">
<path d="M45.8852 14.1723C42.0245 5.56668 33.4231 0 23.9984 0C21.5287 0 19.0874 0.39762 16.7312 1.13606L18.7183 5.33947C20.4216 4.85665 22.1816 4.60103 23.97 4.60103C27.5752 4.60103 31.0101 5.62349 33.9908 7.41278L28.654 26.3849L22.9197 14.2575L17.8667 26.4417L14.1763 17.7509L11.877 22.6359L17.5828 36.0698L22.9765 24.1412L29.7611 38.6544L38.8167 11.5026C39.9806 12.8659 40.9457 14.3995 41.7122 16.0752C43.8413 20.7899 43.9832 26.0725 42.138 30.9008C40.7186 34.593 38.2773 37.7171 35.0979 39.9324L37.085 44.1358C41.3432 41.3809 44.6077 37.3479 46.4529 32.5196C48.6955 26.5269 48.4968 20.023 45.8852 14.1723Z" fill="#B5B3BC"/>
<path d="M31.2651 41.9774C21.6701 45.8684 10.599 41.4945 6.31248 31.9517C4.18342 27.237 4.04148 21.9543 5.88667 17.1261C7.56153 12.6955 10.7409 9.11689 14.8855 6.90157L12.9268 2.72656C7.70347 5.4531 3.70083 9.94053 1.57177 15.4788C-0.699231 21.4715 -0.500518 27.9754 2.11113 33.8261C6.11377 42.7158 14.8571 47.9985 24.0263 47.9985C27.0921 47.9985 30.2147 47.402 33.2238 46.1524L31.2651 41.9774Z" fill="#B5B3BC"/>
</svg>
